# Made in Blockbench 5.1.3
mtllib five_teeth.mtl

o cube
v 0.375 0.0625 0.25
v 0.375 0.0625 -0.25
v 0.375 0 0.25
v 0.375 0 -0.25
v -0.375 0.0625 -0.25
v -0.375 0.0625 0.25
v -0.375 0 -0.25
v -0.375 0 0.25
vt 0.125 0.46875
vt 0.5 0.46875
vt 0.5 0.4375
vt 0.125 0.4375
vt 0.1875 0.46875
vt 0.4375 0.46875
vt 0.4375 0.4375
vt 0.1875 0.4375
vt 0.125 0.46875
vt 0.5 0.46875
vt 0.5 0.4375
vt 0.125 0.4375
vt 0.1875 0.46875
vt 0.4375 0.46875
vt 0.4375 0.4375
vt 0.1875 0.4375
vt 0.125 0.8125
vt 0.5 0.8125
vt 0.5 0.5625
vt 0.125 0.5625
vt 0.125 0.8125
vt 0.5 0.8125
vt 0.5 0.5625
vt 0.125 0.5625
vn 0 0 -1
vn 1 0 0
vn 0 0 1
vn -1 0 0
vn 0 1 0
vn 0 -1 0
usemtl m_30147879-6a40-74b2-e49c-0a8bd7f03aad
f 4/4/1 7/3/1 5/2/1 2/1/1
f 3/8/2 4/7/2 2/6/2 1/5/2
f 8/12/3 3/11/3 1/10/3 6/9/3
f 7/16/4 8/15/4 6/14/4 5/13/4
f 6/20/5 1/19/5 2/18/5 5/17/5
f 7/24/6 4/23/6 3/22/6 8/21/6
o cube
v 0.25 0.063125 0.375
v 0.25 0.063125 -0.375
v 0.25 0 0.375
v 0.25 0 -0.375
v -0.25 0.063125 -0.375
v -0.25 0.063125 0.375
v -0.25 0 -0.375
v -0.25 0 0.375
vt 0.1875 0.46875
vt 0.4375 0.46875
vt 0.4375 0.4375
vt 0.1875 0.4375
vt 0.125 0.46875
vt 0.5 0.46875
vt 0.5 0.4375
vt 0.125 0.4375
vt 0.1875 0.46875
vt 0.4375 0.46875
vt 0.4375 0.4375
vt 0.1875 0.4375
vt 0.125 0.46875
vt 0.5 0.46875
vt 0.5 0.4375
vt 0.125 0.4375
vt 0.1875 0.875
vt 0.4375 0.875
vt 0.4375 0.5
vt 0.1875 0.5
vt 0.1875 0.875
vt 0.4375 0.875
vt 0.4375 0.5
vt 0.1875 0.5
vn 0 0 -1
vn 1 0 0
vn 0 0 1
vn -1 0 0
vn 0 1 0
vn 0 -1 0
usemtl m_30147879-6a40-74b2-e49c-0a8bd7f03aad
f 12/28/7 15/27/7 13/26/7 10/25/7
f 11/32/8 12/31/8 10/30/8 9/29/8
f 16/36/9 11/35/9 9/34/9 14/33/9
f 15/40/10 16/39/10 14/38/10 13/37/10
f 14/44/11 9/43/11 10/42/11 13/41/11
f 15/48/12 12/47/12 11/46/12 16/45/12
o cube
v 0.125 0.3125 0.125
v 0.125 0.3125 -0.125
v 0.125 0.0625 0.125
v 0.125 0.0625 -0.125
v -0.125 0.3125 -0.125
v -0.125 0.3125 0.125
v -0.125 0.0625 -0.125
v -0.125 0.0625 0.125
vt 0.375 0.5625
vt 0.625 0.5625
vt 0.625 0.3125
vt 0.375 0.3125
vt 0.375 0.5625
vt 0.625 0.5625
vt 0.625 0.3125
vt 0.375 0.3125
vt 0.375 0.5625
vt 0.625 0.5625
vt 0.625 0.3125
vt 0.375 0.3125
vt 0.375 0.5625
vt 0.625 0.5625
vt 0.625 0.3125
vt 0.375 0.3125
vt 0.375 0.625
vt 0.625 0.625
vt 0.625 0.375
vt 0.375 0.375
vn 0 0 -1
vn 1 0 0
vn 0 0 1
vn -1 0 0
vn 0 1 0
usemtl m_dfbaff9a-1026-80e4-cb90-a8693cb43f7e
f 20/52/13 23/51/13 21/50/13 18/49/13
f 19/56/14 20/55/14 18/54/14 17/53/14
f 24/60/15 19/59/15 17/58/15 22/57/15
f 23/64/16 24/63/16 22/62/16 21/61/16
usemtl m_1e516fc3-85c6-aaa5-7776-1fa12e01f01a
f 22/68/17 17/67/17 18/66/17 21/65/17
o cube
v 0.09375 0.25 -0.125
v 0.09375 0.25 -0.375
v 0.09375 0.0625 -0.125
v 0.09375 0.0625 -0.375
v -0.09375 0.25 -0.375
v -0.09375 0.25 -0.125
v -0.09375 0.0625 -0.375
v -0.09375 0.0625 -0.125
vt 0.625 0.40625
vt 0.71875 0.40625
vt 0.71875 0.3125
vt 0.625 0.3125
vt 0.8125 0.1875
vt 0.9375 0.1875
vt 0.9375 0.09375
vt 0.8125 0.09375
vt 0 0.1875
vt 0.125 0.1875
vt 0.125 0.09375
vt 0 0.09375
vt 0 0.1875
vt 0 0.28125
vt 0.125 0.28125
vt 0.125 0.1875
vn 0 0 -1
vn 1 0 0
vn -1 0 0
vn 0 1 0
usemtl m_30147879-6a40-74b2-e49c-0a8bd7f03aad
f 28/72/18 31/71/18 29/70/18 26/69/18
f 27/76/19 28/75/19 26/74/19 25/73/19
f 31/80/20 32/79/20 30/78/20 29/77/20
f 30/84/21 25/83/21 26/82/21 29/81/21
o cube
v -0.03047068904579578 0.25 -0.10847511055110487
v -0.32767585038803126 0.25 -0.20504292129327595
v -0.03047068904579578 0.0625 -0.10847511055110487
v -0.32767585038803126 0.0625 -0.20504292129327595
v -0.38561653683333397 0.25 -0.02671982448793464
v -0.08841137549109843 0.25 0.06984798625423644
v -0.38561653683333397 0.0625 -0.02671982448793464
v -0.08841137549109843 0.0625 0.06984798625423644
vt 0.625 0.40625
vt 0.71875 0.40625
vt 0.71875 0.3125
vt 0.625 0.3125
vt 0.78125 0.1875
vt 0.9375 0.1875
vt 0.9375 0.09375
vt 0.78125 0.09375
vt 0 0.1875
vt 0.15625 0.1875
vt 0.15625 0.09375
vt 0 0.09375
vt 0 0.1875
vt 0 0.28125
vt 0.15625 0.28125
vt 0.15625 0.1875
vt 0.78125 0.1875
vt 0.78125 0.28125
vt 0.9375 0.28125
vt 0.9375 0.1875
vn -0.9510565162951536 0 -0.30901699437494745
vn 0.30901699437494745 0 -0.9510565162951536
vn -0.30901699437494745 0 0.9510565162951536
vn 0 1 0
vn 0 -1 0
usemtl m_30147879-6a40-74b2-e49c-0a8bd7f03aad
f 36/88/22 39/87/22 37/86/22 34/85/22
f 35/92/23 36/91/23 34/90/23 33/89/23
f 39/96/24 40/95/24 38/94/24 37/93/24
f 38/100/25 33/99/25 34/98/25 37/97/25
f 39/104/26 36/103/26 35/102/26 40/101/26
o cube
v -0.11258192149093087 0.250625 -0.004541305253985155
v -0.29626481283232875 0.250625 0.24827650548818583
v -0.11258192149093087 0.0625 -0.004541305253985155
v -0.29626481283232875 0.0625 0.24827650548818583
v -0.14457412638702613 0.250625 0.35848624029302456
v 0.039108764954371725 0.250625 0.10566842955085357
v -0.14457412638702613 0.0625 0.35848624029302456
v 0.039108764954371725 0.0625 0.10566842955085357
vt 0.625 0.40625
vt 0.71875 0.40625
vt 0.71875 0.3125
vt 0.625 0.3125
vt 0.78125 0.1875
vt 0.9375 0.1875
vt 0.9375 0.09375
vt 0.78125 0.09375
vt 0 0.1875
vt 0.15625 0.1875
vt 0.15625 0.09375
vt 0 0.09375
vt 0 0.1875
vt 0 0.28125
vt 0.15625 0.28125
vt 0.15625 0.1875
vt 0.78125 0.1875
vt 0.78125 0.28125
vt 0.9375 0.28125
vt 0.9375 0.1875
vn -0.5877852522924732 0 0.8090169943749473
vn -0.8090169943749473 0 -0.5877852522924732
vn 0.8090169943749473 0 0.5877852522924732
vn 0 1 0
vn 0 -1 0
usemtl m_30147879-6a40-74b2-e49c-0a8bd7f03aad
f 44/108/27 47/107/27 45/106/27 42/105/27
f 43/112/28 44/111/28 42/110/28 41/109/28
f 47/116/29 48/115/29 46/114/29 45/113/29
f 46/120/30 41/119/30 42/118/30 45/117/30
f 47/124/31 44/123/31 43/122/31 48/121/31
o cube
v -0.039108764954371725 0.25 0.10566842955085357
v 0.14457412638702613 0.25 0.35848624029302456
v -0.039108764954371725 0.0625 0.10566842955085357
v 0.14457412638702613 0.0625 0.35848624029302456
v 0.29626481283232875 0.25 0.24827650548818583
v 0.11258192149093087 0.25 -0.004541305253985155
v 0.29626481283232875 0.0625 0.24827650548818583
v 0.11258192149093087 0.0625 -0.004541305253985155
vt 0.625 0.40625
vt 0.71875 0.40625
vt 0.71875 0.3125
vt 0.625 0.3125
vt 0.78125 0.1875
vt 0.9375 0.1875
vt 0.9375 0.09375
vt 0.78125 0.09375
vt 0 0.1875
vt 0.15625 0.1875
vt 0.15625 0.09375
vt 0 0.09375
vt 0 0.1875
vt 0 0.28125
vt 0.15625 0.28125
vt 0.15625 0.1875
vt 0.78125 0.1875
vt 0.78125 0.28125
vt 0.9375 0.28125
vt 0.9375 0.1875
vn 0.5877852522924732 0 0.8090169943749473
vn -0.8090169943749473 0 0.5877852522924732
vn 0.8090169943749473 0 -0.5877852522924732
vn 0 1 0
vn 0 -1 0
usemtl m_30147879-6a40-74b2-e49c-0a8bd7f03aad
f 52/128/32 55/127/32 53/126/32 50/125/32
f 51/132/33 52/131/33 50/130/33 49/129/33
f 55/136/34 56/135/34 54/134/34 53/133/34
f 54/140/35 49/139/35 50/138/35 53/137/35
f 55/144/36 52/143/36 51/142/36 56/141/36
o cube
v 0.08841137549109843 0.250625 0.06984798625423644
v 0.38561653683333397 0.250625 -0.02671982448793464
v 0.08841137549109843 0.0625 0.06984798625423644
v 0.38561653683333397 0.0625 -0.02671982448793464
v 0.32767585038803126 0.250625 -0.20504292129327595
v 0.03047068904579578 0.250625 -0.10847511055110487
v 0.32767585038803126 0.0625 -0.20504292129327595
v 0.03047068904579578 0.0625 -0.10847511055110487
vt 0.625 0.40625
vt 0.71875 0.40625
vt 0.71875 0.3125
vt 0.625 0.3125
vt 0.78125 0.1875
vt 0.9375 0.1875
vt 0.9375 0.09375
vt 0.78125 0.09375
vt 0 0.1875
vt 0.15625 0.1875
vt 0.15625 0.09375
vt 0 0.09375
vt 0 0.1875
vt 0 0.28125
vt 0.15625 0.28125
vt 0.15625 0.1875
vt 0.78125 0.1875
vt 0.78125 0.28125
vt 0.9375 0.28125
vt 0.9375 0.1875
vn 0.9510565162951536 0 -0.30901699437494745
vn 0.30901699437494745 0 0.9510565162951536
vn -0.30901699437494745 0 -0.9510565162951536
vn 0 1 0
vn 0 -1 0
usemtl m_30147879-6a40-74b2-e49c-0a8bd7f03aad
f 60/148/37 63/147/37 61/146/37 58/145/37
f 59/152/38 60/151/38 58/150/38 57/149/38
f 63/156/39 64/155/39 62/154/39 61/153/39
f 62/160/40 57/159/40 58/158/40 61/157/40
f 63/164/41 60/163/41 59/162/41 64/161/41